<svg xmlns="http://www.w3.org/2000/svg" width="770" height="278" font-family="Segoe UI, Arial, sans-serif" font-size="13">
<rect x="0" y="0" width="770" height="278" fill="#0d1117"/>
<text x="8" y="15" fill="#8b949e" font-size="11">Graphic generated: 2026-10-10 | tests run: 2026-10-04 @ 6e2de5f</text>
<text x="8" y="46" fill="#c9d1d9" font-weight="bold">Platform</text>
<text x="138" y="46" fill="#c9d1d9" font-weight="bold">Minor</text>
<text x="218" y="46" fill="#c9d1d9" font-weight="bold">Major</text>
<text x="298" y="46" fill="#c9d1d9" font-weight="bold">External</text>
<text x="468" y="46" fill="#c9d1d9" font-weight="bold">Surfaces</text>
<text x="618" y="46" fill="#c9d1d9" font-weight="bold">Coverage</text>
<text x="8" y="85" fill="#c9d1d9">Core</text>
<circle cx="145" cy="80" r="7" fill="#16a34a"/>
<text x="159" y="85" fill="#c9d1d9">577/581</text>
<circle cx="225" cy="80" r="7" fill="#16a34a"/>
<text x="239" y="85" fill="#c9d1d9">687/691</text>
<text x="298" y="85" fill="#8b949e">n/a</text>
<circle cx="475" cy="80" r="7" fill="#2563eb"/>
<text x="489" y="85" fill="#c9d1d9">1/1</text>
<text x="618" y="85" fill="#ca8a04">86.1% (report-only)</text>
<text x="8" y="129" fill="#c9d1d9">Streamlit</text>
<circle cx="145" cy="124" r="7" fill="#2563eb"/>
<text x="159" y="129" fill="#c9d1d9">8/8</text>
<circle cx="225" cy="124" r="7" fill="#2563eb"/>
<text x="239" y="129" fill="#c9d1d9">8/8</text>
<text x="298" y="129" fill="#8b949e">n/a</text>
<circle cx="475" cy="124" r="7" fill="#2563eb"/>
<text x="489" y="129" fill="#c9d1d9">1/1</text>
<text x="618" y="129" fill="#ca8a04">80.9% (report-only)</text>
<text x="8" y="173" fill="#c9d1d9">Web</text>
<circle cx="145" cy="168" r="7" fill="#2563eb"/>
<text x="159" y="173" fill="#c9d1d9">107/107</text>
<circle cx="225" cy="168" r="7" fill="#2563eb"/>
<text x="239" y="173" fill="#c9d1d9">107/107</text>
<text x="298" y="173" fill="#8b949e">n/a</text>
<circle cx="475" cy="168" r="7" fill="#dc2626"/>
<text x="489" y="173" fill="#c9d1d9">0/3 (3 planned)</text>
<text x="618" y="173" fill="#16a34a">91.7% (report-only)</text>
<text x="8" y="217" fill="#c9d1d9">Android</text>
<circle cx="145" cy="212" r="7" fill="#2563eb"/>
<text x="159" y="217" fill="#c9d1d9">38/38</text>
<text x="218" y="217" fill="#8b949e">n/a</text>
<circle cx="305" cy="212" r="7" fill="#2563eb"/>
<text x="319" y="217" fill="#c9d1d9">1/1 (30d)</text>
<circle cx="475" cy="212" r="7" fill="#2563eb"/>
<text x="489" y="217" fill="#c9d1d9">1/1 (4 planned)</text>
<text x="618" y="217" fill="#8b949e">n/a</text>
<text x="8" y="261" fill="#c9d1d9">Scan Proxy</text>
<circle cx="145" cy="256" r="7" fill="#2563eb"/>
<text x="159" y="261" fill="#c9d1d9">9/9</text>
<circle cx="225" cy="256" r="7" fill="#2563eb"/>
<text x="239" y="261" fill="#c9d1d9">57/57</text>
<circle cx="305" cy="256" r="7" fill="#2563eb"/>
<text x="319" y="261" fill="#c9d1d9">2/2 (2d)</text>
<circle cx="475" cy="256" r="7" fill="#2563eb"/>
<text x="489" y="261" fill="#c9d1d9">2/2 (2 planned)</text>
<text x="618" y="261" fill="#2563eb">100.0%</text>
</svg>